<svg xmlns="http://www.w3.org/2000/svg" viewBox="0 0 100 100"><defs><style>.cls-1{fill:#231f20;}.cls-1,.cls-2,.cls-3,.cls-4,.cls-5,.cls-6{stroke:#231f20;stroke-width:1.5px;}.cls-1,.cls-2,.cls-4,.cls-5,.cls-6{stroke-linejoin:bevel;}.cls-2,.cls-3{fill:#f0457d;}.cls-3{stroke-miterlimit:10;}.cls-4{fill:#fff;}.cls-5{fill:none;}.cls-6{fill:#ffd44d;}.cls-7{font-size:17.72px;font-family:MyriadPro-Regular, Myriad Pro;}</style></defs><g id="Layer_2" data-name="Layer 2"><rect class="cls-1" x="14.16" y="40.67" width="50.43" height="30.43" rx="1.77"/><path class="cls-2" d="M62.16,38.77H16.59a2.43,2.43,0,0,0-2.43,2.44V66.77a2.43,2.43,0,0,0,2.43,2.44h1.49l-.15,10.67L29,69.21H62.16a2.43,2.43,0,0,0,2.43-2.44V41.21A2.43,2.43,0,0,0,62.16,38.77Z"/><line class="cls-3" x1="35.41" y1="46.43" x2="57.83" y2="46.43"/><line class="cls-3" x1="35.41" y1="50.67" x2="57.83" y2="50.67"/><line class="cls-3" x1="35.41" y1="54.92" x2="57.83" y2="54.92"/><line class="cls-3" x1="18.63" y1="59.16" x2="57.83" y2="59.16"/><line class="cls-3" x1="18.63" y1="63.4" x2="57.83" y2="63.4"/><line class="cls-4" x1="25.37" y1="42.56" x2="25.37" y2="45.34"/><line class="cls-4" x1="19.63" y1="44.86" x2="31.12" y2="44.86"/><path class="cls-5" d="M22,45.15a14,14,0,0,0,6.67,9.73"/><path class="cls-5" d="M28.8,45.15h0a14,14,0,0,1-6.68,9.73L22,55"/><rect class="cls-1" x="35.41" y="22.01" width="50.43" height="30.43" rx="1.77" transform="translate(121.25 74.46) rotate(180)"/><path class="cls-6" d="M37.84,20.12H83.41a2.43,2.43,0,0,1,2.43,2.43V48.12a2.43,2.43,0,0,1-2.43,2.43H81.92l.15,10.68L69,50.55H37.84a2.43,2.43,0,0,1-2.43-2.43V22.55A2.43,2.43,0,0,1,37.84,20.12Z"/><line class="cls-3" x1="56.66" y1="27.77" x2="79.08" y2="27.77"/><line class="cls-3" x1="56.66" y1="32.01" x2="79.08" y2="32.01"/><line class="cls-3" x1="56.66" y1="36.26" x2="79.08" y2="36.26"/><line class="cls-3" x1="39.88" y1="40.5" x2="79.08" y2="40.5"/><line class="cls-3" x1="39.88" y1="44.75" x2="79.08" y2="44.75"/><text class="cls-7" transform="translate(41.36 37.23)">A</text></g></svg>