<svg id="Layer_1" data-name="Layer 1" xmlns="http://www.w3.org/2000/svg" viewBox="0 0 500 500"><defs><style>.cls-1{fill:#db2868;}.cls-2{fill:#0086f4;}.cls-3{fill:#0099f5;}.cls-4{fill:#24285b;}.cls-5{fill:#ffd44d;}.cls-6{fill:#f0457d;}.cls-7{fill:#ffbeb3;}.cls-8{fill:#e2e2e2;}.cls-9{fill:#f2f2f2;}</style></defs><title>Startups</title><path class="cls-1" d="M225.63,154.7a8.83,8.83,0,0,1-5.47-1.9L206,141.67a8.86,8.86,0,0,1,10.95-13.94l14.18,11.13a8.87,8.87,0,0,1-5.49,15.84Z"/><path class="cls-2" d="M96.42,141H76.76a8.88,8.88,0,0,1,0-17.73H96.42a8.88,8.88,0,0,1,0,17.73Z"/><path class="cls-1" d="M273.66,154.48a8.84,8.84,0,0,0,5.47-1.89l14.17-11.14a8.86,8.86,0,1,0-10.95-13.94l-14.17,11.13a8.87,8.87,0,0,0,5.48,15.84Z"/><path class="cls-2" d="M403.58,140.73h19.66a8.88,8.88,0,0,0,0-17.73H403.58a8.88,8.88,0,0,0,0,17.73Z"/><rect class="cls-2" x="231.01" y="110.68" width="35.65" height="16.99"/><path class="cls-3" d="M164.76,209.44a74.72,74.72,0,0,1-74.64-74.63V96.06a20.32,20.32,0,0,1,20.29-20.29H219.1a20.32,20.32,0,0,1,20.3,20.29v38.75A74.72,74.72,0,0,1,164.76,209.44ZM110.41,93.5a2.56,2.56,0,0,0-2.56,2.56v38.75a57,57,0,0,0,56.91,56.9h0a57,57,0,0,0,56.9-56.9V96.06a2.56,2.56,0,0,0-2.56-2.56Z"/><path class="cls-3" d="M333.7,209.44a74.72,74.72,0,0,1-74.64-74.63V96.06a20.31,20.31,0,0,1,20.29-20.29H388a20.31,20.31,0,0,1,20.29,20.29v38.75A74.72,74.72,0,0,1,333.7,209.44ZM279.35,93.5a2.56,2.56,0,0,0-2.56,2.56v38.75a57,57,0,0,0,56.91,56.9h0a57,57,0,0,0,56.9-56.9V96.06A2.56,2.56,0,0,0,388,93.5Z"/><path class="cls-4" d="M391,264s17.14,2.59,16.17,4.27-16.27,3.84-16.27,3.84l-5.73-4.31Z"/><path class="cls-5" d="M116.1,287.66h-5.72a18.28,18.28,0,0,1-18.27-18.28V267.9a18.28,18.28,0,0,1,18.29-18.27h5.71Z"/><rect class="cls-6" x="116.11" y="249.68" width="235.88" height="38.03"/><polygon class="cls-4" points="116.1 287.65 116.11 249.63 127.27 249.64 135.02 249.64 158.84 249.64 158.83 287.67 135.01 287.66 127.25 287.66 116.1 287.65"/><path class="cls-7" d="M352,249.72,393,264a9.05,9.05,0,0,0,.39,8.11L352,287.75Z"/><rect class="cls-8" x="158.84" y="340.36" width="179.77" height="85.77" rx="10.46"/><rect class="cls-3" x="169.3" y="340.36" width="116.3" height="85.77"/><path class="cls-9" d="M299.76,340.36h33.35a7.89,7.89,0,0,1,7.89,7.89v70a7.89,7.89,0,0,1-7.89,7.89H299.76a0,0,0,0,1,0,0V340.36A0,0,0,0,1,299.76,340.36Z"/></svg>